<svg className="scale-75" width="110" height="110" viewBox="0 0 110 110" fill="none" xmlns="http://www.w3.org/2000/svg">
    <circle cx="55" cy="55" r="51.5" fill="#53DAA1" stroke="#C3F7E1" stroke-width="7" />
    <path d="M56.6161 75.8892H53.2834C50.9364 75.8892 49.029 77.7966 49.029 80.1436V84.7455C49.029 87.0925 50.9364 88.9999 53.2834 88.9999H56.6161C58.9632 88.9999 60.8705 87.0925 60.8705 84.7455V80.1436C60.8705 77.7895 58.9632 75.8892 56.6161 75.8892Z" fill="white" />
    <path d="M33.1173 40.2653L39.265 41.0311C41.215 41.2722 43.0656 40.1519 43.7676 38.3154C44.654 35.9967 45.8878 34.1673 47.469 32.8342C49.7097 30.9481 52.4963 29.9979 55.829 29.9979C59.2822 29.9979 62.0334 30.9056 64.0755 32.7137C66.1176 34.5289 67.1316 36.6987 67.1316 39.2443C67.1316 41.0737 66.5573 42.7471 65.4086 44.2645C64.664 45.2289 62.3737 47.2568 58.5518 50.3555C54.7228 53.4541 52.1773 56.2478 50.901 58.7296C49.5963 61.2681 49.1425 64.0831 49.029 66.9052C48.9298 69.3232 50.8584 71.337 53.2835 71.337H56.7579C58.9702 71.337 60.7997 69.6423 60.9982 67.4441C61.14 65.863 61.4024 64.6646 61.7995 63.8492C62.466 62.4523 64.189 60.6087 66.9544 58.3113C72.3079 53.8796 75.7965 50.3767 77.4345 47.7957C79.0654 45.2218 79.8879 42.4918 79.8879 39.6059C79.8879 34.3942 77.6685 29.8207 73.2226 25.8924C68.7838 21.9641 62.7993 20 55.2831 20C48.1356 20 42.3708 21.9358 37.9746 25.8144C34.2307 29.1187 31.9545 33.0328 31.1533 37.5496C30.905 38.8685 31.8056 40.1022 33.1173 40.2653Z" fill="white" />
</svg>