<svg width="534" height="60" viewBox="0 0 534 60" fill="none" xmlns="http://www.w3.org/2000/svg">
<path d="M115.094 31.9883H111.602V29.1406H115.094C115.578 29.1406 115.973 29.0312 116.277 28.8125C116.59 28.5938 116.816 28.293 116.957 27.9102C117.098 27.5195 117.168 27.082 117.168 26.5977C117.168 26.1055 117.094 25.6484 116.945 25.2266C116.805 24.7969 116.582 24.4492 116.277 24.1836C115.98 23.918 115.586 23.7852 115.094 23.7852H112.703V38H109.281V20.9375H115.094C116.242 20.9375 117.23 21.1797 118.059 21.6641C118.887 22.1484 119.52 22.8164 119.957 23.668C120.402 24.5117 120.625 25.4805 120.625 26.5742C120.625 27.6758 120.402 28.6328 119.957 29.4453C119.52 30.25 118.887 30.875 118.059 31.3203C117.23 31.7656 116.242 31.9883 115.094 31.9883ZM128.207 35.082V29.2227C128.207 28.8398 128.16 28.5352 128.066 28.3086C127.98 28.082 127.848 27.918 127.668 27.8164C127.496 27.707 127.285 27.6523 127.035 27.6523C126.754 27.6523 126.52 27.7109 126.332 27.8281C126.145 27.9453 126.004 28.1133 125.91 28.332C125.824 28.5508 125.781 28.8125 125.781 29.1172H122.488C122.488 28.5703 122.594 28.0547 122.805 27.5703C123.016 27.0781 123.324 26.6484 123.73 26.2812C124.145 25.9062 124.637 25.6133 125.207 25.4023C125.777 25.1914 126.418 25.0859 127.129 25.0859C127.973 25.0859 128.723 25.2305 129.379 25.5195C130.035 25.8008 130.555 26.25 130.938 26.8672C131.32 27.4844 131.512 28.2852 131.512 29.2695V34.918C131.512 35.6289 131.547 36.207 131.617 36.6523C131.695 37.0977 131.809 37.4805 131.957 37.8008V38H128.652C128.504 37.6484 128.391 37.2109 128.312 36.6875C128.242 36.1562 128.207 35.6211 128.207 35.082ZM128.605 30.2539L128.617 32.2227H127.41C127.098 32.2227 126.824 32.2734 126.59 32.375C126.363 32.4766 126.172 32.6211 126.016 32.8086C125.859 32.9883 125.742 33.1992 125.664 33.4414C125.594 33.6836 125.559 33.9414 125.559 34.2148C125.559 34.5195 125.602 34.7773 125.688 34.9883C125.773 35.1992 125.902 35.3594 126.074 35.4688C126.246 35.5781 126.449 35.6328 126.684 35.6328C127.043 35.6328 127.355 35.5586 127.621 35.4102C127.887 35.2617 128.082 35.082 128.207 34.8711C128.34 34.6602 128.383 34.4648 128.336 34.2852L129.086 35.5625C128.992 35.8516 128.863 36.1523 128.699 36.4648C128.543 36.7773 128.344 37.0664 128.102 37.332C127.859 37.5977 127.559 37.8164 127.199 37.9883C126.848 38.1523 126.43 38.2344 125.945 38.2344C125.266 38.2344 124.645 38.0781 124.082 37.7656C123.52 37.4531 123.074 37.0156 122.746 36.4531C122.426 35.8906 122.266 35.2227 122.266 34.4492C122.266 33.8086 122.367 33.2305 122.57 32.7148C122.781 32.1914 123.094 31.75 123.508 31.3906C123.922 31.0234 124.445 30.7422 125.078 30.5469C125.711 30.3516 126.453 30.2539 127.305 30.2539H128.605ZM139.469 25.3203V27.793H133V25.3203H139.469ZM134.488 22.1914H137.758V34.1328C137.758 34.4844 137.793 34.7539 137.863 34.9414C137.934 35.1289 138.039 35.2617 138.18 35.3398C138.328 35.4102 138.523 35.4453 138.766 35.4453C138.93 35.4453 139.082 35.4375 139.223 35.4219C139.363 35.3984 139.469 35.375 139.539 35.3516V37.918C139.281 38.0195 139.008 38.0977 138.719 38.1523C138.438 38.207 138.102 38.2344 137.711 38.2344C137.055 38.2344 136.484 38.1094 136 37.8594C135.523 37.6094 135.152 37.2109 134.887 36.6641C134.621 36.1094 134.488 35.3828 134.488 34.4844V22.1914ZM144.578 28.1445V38H141.297V25.3203H144.391L144.578 28.1445ZM147.566 25.2266L147.52 28.4961C147.371 28.4648 147.191 28.4414 146.98 28.4258C146.777 28.4102 146.598 28.4023 146.441 28.4023C146.074 28.4023 145.762 28.4609 145.504 28.5781C145.246 28.6875 145.031 28.8555 144.859 29.082C144.695 29.3008 144.57 29.5742 144.484 29.9023C144.398 30.2305 144.348 30.6016 144.332 31.0156L143.711 30.7812C143.711 29.9531 143.773 29.1953 143.898 28.5078C144.031 27.8125 144.227 27.2109 144.484 26.7031C144.742 26.1875 145.051 25.7891 145.41 25.5078C145.777 25.2266 146.191 25.0859 146.652 25.0859C146.809 25.0859 146.973 25.1016 147.145 25.1328C147.324 25.1562 147.465 25.1875 147.566 25.2266ZM152.688 25.3203V38H149.395V25.3203H152.688ZM149.242 22.0391C149.242 21.5312 149.402 21.1133 149.723 20.7852C150.051 20.4492 150.488 20.2812 151.035 20.2812C151.59 20.2812 152.027 20.4492 152.348 20.7852C152.668 21.1133 152.828 21.5312 152.828 22.0391C152.828 22.5391 152.664 22.957 152.336 23.293C152.016 23.6211 151.586 23.7852 151.047 23.7852C150.492 23.7852 150.051 23.6211 149.723 23.293C149.402 22.957 149.242 22.5391 149.242 22.0391ZM159.871 35.5039C160.176 35.5039 160.438 35.4414 160.656 35.3164C160.883 35.1914 161.055 34.9883 161.172 34.707C161.289 34.4258 161.352 34.0625 161.359 33.6172H164.441C164.441 34.5703 164.238 35.3945 163.832 36.0898C163.434 36.7773 162.895 37.3086 162.215 37.6836C161.543 38.0508 160.781 38.2344 159.93 38.2344C159.078 38.2344 158.336 38.0977 157.703 37.8242C157.07 37.5508 156.547 37.1523 156.133 36.6289C155.727 36.1055 155.418 35.4688 155.207 34.7188C155.004 33.9609 154.902 33.0938 154.902 32.1172V31.1914C154.902 30.2305 155.004 29.3711 155.207 28.6133C155.418 27.8555 155.727 27.2148 156.133 26.6914C156.547 26.168 157.066 25.7695 157.691 25.4961C158.324 25.2227 159.066 25.0859 159.918 25.0859C160.832 25.0859 161.625 25.2773 162.297 25.6602C162.969 26.0352 163.492 26.5898 163.867 27.3242C164.25 28.0586 164.441 28.9648 164.441 30.043H161.359C161.352 29.5586 161.293 29.1562 161.184 28.8359C161.082 28.5078 160.922 28.2578 160.703 28.0859C160.492 27.9062 160.211 27.8164 159.859 27.8164C159.492 27.8164 159.195 27.8945 158.969 28.0508C158.75 28.1992 158.582 28.418 158.465 28.707C158.355 28.9883 158.281 29.3398 158.242 29.7617C158.203 30.1836 158.184 30.6602 158.184 31.1914V32.1172C158.184 32.6875 158.199 33.1836 158.23 33.6055C158.27 34.0195 158.344 34.3711 158.453 34.6602C158.57 34.9414 158.738 35.1523 158.957 35.293C159.184 35.4336 159.488 35.5039 159.871 35.5039ZM169.609 19.9883V38H166.328V19.9883H169.609ZM176.277 25.3203L171.812 31.625L169.129 34.6367L167.969 32.1406L170.031 29.1289L172.363 25.3203H176.277ZM172.855 38L170.09 32.1758L172.352 30.0898L176.617 38H172.855ZM193.293 35.1641V38H185.875V35.1641H193.293ZM186.941 20.9375V38H183.508V20.9375H186.941ZM192.297 27.8516V30.6055H185.875V27.8516H192.297ZM193.27 20.9375V23.7852H185.875V20.9375H193.27ZM201.039 35.1992V20H204.332V38L201.355 38.0117L201.039 35.1992ZM194.465 32.1055V31.2617C194.465 30.2305 194.551 29.3281 194.723 28.5547C194.902 27.7812 195.168 27.1367 195.52 26.6211C195.871 26.1055 196.301 25.7227 196.809 25.4727C197.324 25.2148 197.914 25.0859 198.578 25.0859C199.18 25.0859 199.707 25.2383 200.16 25.543C200.621 25.8398 201.012 26.2578 201.332 26.7969C201.652 27.3359 201.91 27.9727 202.105 28.707C202.301 29.4414 202.438 30.2461 202.516 31.1211V32.3398C202.422 33.168 202.277 33.9414 202.082 34.6602C201.895 35.3789 201.637 36.0039 201.309 36.5352C200.988 37.0664 200.602 37.4844 200.148 37.7891C199.695 38.0859 199.168 38.2344 198.566 38.2344C197.902 38.2344 197.312 38.1016 196.797 37.8359C196.289 37.5703 195.859 37.1797 195.508 36.6641C195.164 36.1406 194.902 35.5 194.723 34.7422C194.551 33.9766 194.465 33.0977 194.465 32.1055ZM197.746 31.2617V32.1055C197.746 32.6992 197.773 33.2109 197.828 33.6406C197.891 34.0625 197.988 34.4102 198.121 34.6836C198.262 34.9492 198.445 35.1484 198.672 35.2812C198.898 35.4062 199.18 35.4688 199.516 35.4688C199.953 35.4688 200.309 35.3594 200.582 35.1406C200.855 34.9141 201.059 34.6055 201.191 34.2148C201.332 33.8164 201.41 33.3594 201.426 32.8438V30.6289C201.41 30.1992 201.359 29.8125 201.273 29.4688C201.188 29.125 201.066 28.832 200.91 28.5898C200.754 28.3477 200.559 28.1602 200.324 28.0273C200.098 27.8945 199.832 27.8281 199.527 27.8281C199.199 27.8281 198.918 27.8945 198.684 28.0273C198.457 28.1602 198.277 28.3672 198.145 28.6484C198.012 28.9219 197.91 29.2773 197.84 29.7148C197.777 30.1445 197.746 30.6602 197.746 31.2617ZM209.781 34.6602L211.996 25.3203H214.059L213.555 29.1172L211.375 38H209.652L209.781 34.6602ZM209.148 25.3203L210.66 34.6367L210.648 38H208.633L205.996 25.3203H209.148ZM215.723 34.4844L217.188 25.3203H220.363L217.715 38H215.699L215.723 34.4844ZM214.34 25.3203L216.555 34.5898L216.707 38H214.984L212.805 29.1406L212.312 25.3203H214.34ZM227.605 35.082V29.2227C227.605 28.8398 227.559 28.5352 227.465 28.3086C227.379 28.082 227.246 27.918 227.066 27.8164C226.895 27.707 226.684 27.6523 226.434 27.6523C226.152 27.6523 225.918 27.7109 225.73 27.8281C225.543 27.9453 225.402 28.1133 225.309 28.332C225.223 28.5508 225.18 28.8125 225.18 29.1172H221.887C221.887 28.5703 221.992 28.0547 222.203 27.5703C222.414 27.0781 222.723 26.6484 223.129 26.2812C223.543 25.9062 224.035 25.6133 224.605 25.4023C225.176 25.1914 225.816 25.0859 226.527 25.0859C227.371 25.0859 228.121 25.2305 228.777 25.5195C229.434 25.8008 229.953 26.25 230.336 26.8672C230.719 27.4844 230.91 28.2852 230.91 29.2695V34.918C230.91 35.6289 230.945 36.207 231.016 36.6523C231.094 37.0977 231.207 37.4805 231.355 37.8008V38H228.051C227.902 37.6484 227.789 37.2109 227.711 36.6875C227.641 36.1562 227.605 35.6211 227.605 35.082ZM228.004 30.2539L228.016 32.2227H226.809C226.496 32.2227 226.223 32.2734 225.988 32.375C225.762 32.4766 225.57 32.6211 225.414 32.8086C225.258 32.9883 225.141 33.1992 225.062 33.4414C224.992 33.6836 224.957 33.9414 224.957 34.2148C224.957 34.5195 225 34.7773 225.086 34.9883C225.172 35.1992 225.301 35.3594 225.473 35.4688C225.645 35.5781 225.848 35.6328 226.082 35.6328C226.441 35.6328 226.754 35.5586 227.02 35.4102C227.285 35.2617 227.48 35.082 227.605 34.8711C227.738 34.6602 227.781 34.4648 227.734 34.2852L228.484 35.5625C228.391 35.8516 228.262 36.1523 228.098 36.4648C227.941 36.7773 227.742 37.0664 227.5 37.332C227.258 37.5977 226.957 37.8164 226.598 37.9883C226.246 38.1523 225.828 38.2344 225.344 38.2344C224.664 38.2344 224.043 38.0781 223.48 37.7656C222.918 37.4531 222.473 37.0156 222.145 36.4531C221.824 35.8906 221.664 35.2227 221.664 34.4492C221.664 33.8086 221.766 33.2305 221.969 32.7148C222.18 32.1914 222.492 31.75 222.906 31.3906C223.32 31.0234 223.844 30.7422 224.477 30.5469C225.109 30.3516 225.852 30.2539 226.703 30.2539H228.004ZM236.617 28.1445V38H233.336V25.3203H236.43L236.617 28.1445ZM239.605 25.2266L239.559 28.4961C239.41 28.4648 239.23 28.4414 239.02 28.4258C238.816 28.4102 238.637 28.4023 238.48 28.4023C238.113 28.4023 237.801 28.4609 237.543 28.5781C237.285 28.6875 237.07 28.8555 236.898 29.082C236.734 29.3008 236.609 29.5742 236.523 29.9023C236.438 30.2305 236.387 30.6016 236.371 31.0156L235.75 30.7812C235.75 29.9531 235.812 29.1953 235.938 28.5078C236.07 27.8125 236.266 27.2109 236.523 26.7031C236.781 26.1875 237.09 25.7891 237.449 25.5078C237.816 25.2266 238.23 25.0859 238.691 25.0859C238.848 25.0859 239.012 25.1016 239.184 25.1328C239.363 25.1562 239.504 25.1875 239.605 25.2266ZM247.188 35.1992V20H250.48V38L247.504 38.0117L247.188 35.1992ZM240.613 32.1055V31.2617C240.613 30.2305 240.699 29.3281 240.871 28.5547C241.051 27.7812 241.316 27.1367 241.668 26.6211C242.02 26.1055 242.449 25.7227 242.957 25.4727C243.473 25.2148 244.062 25.0859 244.727 25.0859C245.328 25.0859 245.855 25.2383 246.309 25.543C246.77 25.8398 247.16 26.2578 247.48 26.7969C247.801 27.3359 248.059 27.9727 248.254 28.707C248.449 29.4414 248.586 30.2461 248.664 31.1211V32.3398C248.57 33.168 248.426 33.9414 248.23 34.6602C248.043 35.3789 247.785 36.0039 247.457 36.5352C247.137 37.0664 246.75 37.4844 246.297 37.7891C245.844 38.0859 245.316 38.2344 244.715 38.2344C244.051 38.2344 243.461 38.1016 242.945 37.8359C242.438 37.5703 242.008 37.1797 241.656 36.6641C241.312 36.1406 241.051 35.5 240.871 34.7422C240.699 33.9766 240.613 33.0977 240.613 32.1055ZM243.895 31.2617V32.1055C243.895 32.6992 243.922 33.2109 243.977 33.6406C244.039 34.0625 244.137 34.4102 244.27 34.6836C244.41 34.9492 244.594 35.1484 244.82 35.2812C245.047 35.4062 245.328 35.4688 245.664 35.4688C246.102 35.4688 246.457 35.3594 246.73 35.1406C247.004 34.9141 247.207 34.6055 247.34 34.2148C247.48 33.8164 247.559 33.3594 247.574 32.8438V30.6289C247.559 30.1992 247.508 29.8125 247.422 29.4688C247.336 29.125 247.215 28.832 247.059 28.5898C246.902 28.3477 246.707 28.1602 246.473 28.0273C246.246 27.8945 245.98 27.8281 245.676 27.8281C245.348 27.8281 245.066 27.8945 244.832 28.0273C244.605 28.1602 244.426 28.3672 244.293 28.6484C244.16 28.9219 244.059 29.2773 243.988 29.7148C243.926 30.1445 243.895 30.6602 243.895 31.2617ZM258.578 34.5781C258.578 34.3594 258.504 34.1641 258.355 33.9922C258.207 33.8203 257.973 33.6445 257.652 33.4648C257.332 33.2773 256.906 33.0703 256.375 32.8438C255.797 32.6094 255.285 32.3672 254.84 32.1172C254.395 31.8672 254.016 31.5898 253.703 31.2852C253.398 30.9805 253.168 30.6328 253.012 30.2422C252.855 29.8516 252.777 29.4062 252.777 28.9062C252.777 28.3672 252.875 27.8711 253.07 27.418C253.273 26.957 253.562 26.5547 253.938 26.2109C254.312 25.8594 254.77 25.5859 255.309 25.3906C255.855 25.1875 256.469 25.0859 257.148 25.0859C258.102 25.0859 258.918 25.2539 259.598 25.5898C260.285 25.918 260.812 26.3789 261.18 26.9727C261.547 27.5664 261.73 28.2578 261.73 29.0469H258.449C258.449 28.7656 258.406 28.5156 258.32 28.2969C258.234 28.0703 258.094 27.8945 257.898 27.7695C257.711 27.6445 257.457 27.582 257.137 27.582C256.902 27.582 256.691 27.6328 256.504 27.7344C256.324 27.8359 256.18 27.9727 256.07 28.1445C255.969 28.3086 255.918 28.5039 255.918 28.7305C255.918 28.9023 255.953 29.0547 256.023 29.1875C256.102 29.3203 256.223 29.4492 256.387 29.5742C256.551 29.6992 256.77 29.832 257.043 29.9727C257.324 30.1055 257.668 30.2539 258.074 30.418C258.918 30.7305 259.609 31.0664 260.148 31.4258C260.695 31.7852 261.102 32.207 261.367 32.6914C261.633 33.168 261.766 33.7578 261.766 34.4609C261.766 35.0234 261.656 35.5352 261.438 35.9961C261.227 36.457 260.918 36.8555 260.512 37.1914C260.105 37.5273 259.617 37.7852 259.047 37.9648C258.484 38.1445 257.855 38.2344 257.16 38.2344C256.137 38.2344 255.273 38.0312 254.57 37.625C253.867 37.2188 253.336 36.6992 252.977 36.0664C252.617 35.4258 252.438 34.7617 252.438 34.0742H255.555C255.57 34.4961 255.648 34.8281 255.789 35.0703C255.938 35.3047 256.137 35.4688 256.387 35.5625C256.637 35.6562 256.914 35.7031 257.219 35.7031C257.523 35.7031 257.773 35.6641 257.969 35.5859C258.172 35.5 258.324 35.3711 258.426 35.1992C258.527 35.0195 258.578 34.8125 258.578 34.5781ZM279.332 35.2695V38H269.277V35.668L273.895 29.7969C274.34 29.1797 274.688 28.6406 274.938 28.1797C275.188 27.7109 275.367 27.293 275.477 26.9258C275.586 26.5508 275.641 26.1992 275.641 25.8711C275.641 25.3633 275.582 24.9297 275.465 24.5703C275.348 24.2031 275.172 23.9219 274.938 23.7266C274.711 23.5234 274.43 23.4219 274.094 23.4219C273.688 23.4219 273.352 23.5469 273.086 23.7969C272.82 24.0469 272.621 24.3906 272.488 24.8281C272.363 25.2578 272.301 25.7461 272.301 26.293H269.008C269.008 25.2695 269.215 24.332 269.629 23.4805C270.051 22.6289 270.641 21.9531 271.398 21.4531C272.164 20.9453 273.082 20.6914 274.152 20.6914C275.199 20.6914 276.074 20.8867 276.777 21.2773C277.488 21.668 278.023 22.2266 278.383 22.9531C278.75 23.6719 278.934 24.5312 278.934 25.5312C278.934 26.1016 278.859 26.6562 278.711 27.1953C278.562 27.7266 278.352 28.2578 278.078 28.7891C277.805 29.3125 277.469 29.8477 277.07 30.3945C276.672 30.9414 276.223 31.5078 275.723 32.0938L273.496 35.2695H279.332ZM291.32 27.9688V30.9336C291.32 32.2148 291.199 33.3164 290.957 34.2383C290.715 35.1602 290.375 35.918 289.938 36.5117C289.5 37.0977 288.98 37.5312 288.379 37.8125C287.777 38.0938 287.113 38.2344 286.387 38.2344C285.809 38.2344 285.266 38.1445 284.758 37.9648C284.25 37.7852 283.789 37.5117 283.375 37.1445C282.969 36.7695 282.617 36.2969 282.32 35.7266C282.031 35.1484 281.809 34.4648 281.652 33.6758C281.496 32.8789 281.418 31.9648 281.418 30.9336V27.9688C281.418 26.6875 281.539 25.5898 281.781 24.6758C282.031 23.7539 282.375 23 282.812 22.4141C283.25 21.8281 283.77 21.3984 284.371 21.125C284.98 20.8438 285.648 20.7031 286.375 20.7031C286.945 20.7031 287.484 20.793 287.992 20.9727C288.508 21.1445 288.965 21.4141 289.363 21.7812C289.77 22.1484 290.117 22.6211 290.406 23.1992C290.703 23.7695 290.93 24.4531 291.086 25.25C291.242 26.0391 291.32 26.9453 291.32 27.9688ZM288.027 31.3906V27.4883C288.027 26.8867 288 26.3594 287.945 25.9062C287.898 25.4531 287.832 25.0703 287.746 24.7578C287.66 24.4453 287.547 24.1914 287.406 23.9961C287.266 23.8008 287.109 23.6602 286.938 23.5742C286.766 23.4805 286.574 23.4336 286.363 23.4336C286.113 23.4336 285.887 23.5039 285.684 23.6445C285.48 23.7852 285.305 24.0156 285.156 24.3359C285.008 24.6484 284.895 25.0664 284.816 25.5898C284.746 26.1055 284.711 26.7383 284.711 27.4883V31.3906C284.711 31.9922 284.734 32.5234 284.781 32.9844C284.836 33.4453 284.91 33.8398 285.004 34.168C285.105 34.4883 285.219 34.7461 285.344 34.9414C285.477 35.1367 285.629 35.2812 285.801 35.375C285.98 35.4609 286.176 35.5039 286.387 35.5039C286.637 35.5039 286.863 35.4336 287.066 35.293C287.277 35.1445 287.453 34.9102 287.594 34.5898C287.734 34.2695 287.84 33.8477 287.91 33.3242C287.988 32.793 288.027 32.1484 288.027 31.3906ZM303.613 35.2695V38H293.559V35.668L298.176 29.7969C298.621 29.1797 298.969 28.6406 299.219 28.1797C299.469 27.7109 299.648 27.293 299.758 26.9258C299.867 26.5508 299.922 26.1992 299.922 25.8711C299.922 25.3633 299.863 24.9297 299.746 24.5703C299.629 24.2031 299.453 23.9219 299.219 23.7266C298.992 23.5234 298.711 23.4219 298.375 23.4219C297.969 23.4219 297.633 23.5469 297.367 23.7969C297.102 24.0469 296.902 24.3906 296.77 24.8281C296.645 25.2578 296.582 25.7461 296.582 26.293H293.289C293.289 25.2695 293.496 24.332 293.91 23.4805C294.332 22.6289 294.922 21.9531 295.68 21.4531C296.445 20.9453 297.363 20.6914 298.434 20.6914C299.48 20.6914 300.355 20.8867 301.059 21.2773C301.77 21.668 302.305 22.2266 302.664 22.9531C303.031 23.6719 303.215 24.5312 303.215 25.5312C303.215 26.1016 303.141 26.6562 302.992 27.1953C302.844 27.7266 302.633 28.2578 302.359 28.7891C302.086 29.3125 301.75 29.8477 301.352 30.3945C300.953 30.9414 300.504 31.5078 300.004 32.0938L297.777 35.2695H303.613ZM315.754 35.2695V38H305.699V35.668L310.316 29.7969C310.762 29.1797 311.109 28.6406 311.359 28.1797C311.609 27.7109 311.789 27.293 311.898 26.9258C312.008 26.5508 312.062 26.1992 312.062 25.8711C312.062 25.3633 312.004 24.9297 311.887 24.5703C311.77 24.2031 311.594 23.9219 311.359 23.7266C311.133 23.5234 310.852 23.4219 310.516 23.4219C310.109 23.4219 309.773 23.5469 309.508 23.7969C309.242 24.0469 309.043 24.3906 308.91 24.8281C308.785 25.2578 308.723 25.7461 308.723 26.293H305.43C305.43 25.2695 305.637 24.332 306.051 23.4805C306.473 22.6289 307.062 21.9531 307.82 21.4531C308.586 20.9453 309.504 20.6914 310.574 20.6914C311.621 20.6914 312.496 20.8867 313.199 21.2773C313.91 21.668 314.445 22.2266 314.805 22.9531C315.172 23.6719 315.355 24.5312 315.355 25.5312C315.355 26.1016 315.281 26.6562 315.133 27.1953C314.984 27.7266 314.773 28.2578 314.5 28.7891C314.227 29.3125 313.891 29.8477 313.492 30.3945C313.094 30.9414 312.645 31.5078 312.145 32.0938L309.918 35.2695H315.754ZM333.531 31.0156H335.359C335.359 32.2422 335.008 33.1641 334.305 33.7812C333.602 34.3906 332.645 34.6953 331.434 34.6953C330.598 34.6953 329.871 34.5039 329.254 34.1211C328.645 33.7383 328.172 33.207 327.836 32.5273C327.508 31.8477 327.344 31.0586 327.344 30.1602V28.7656C327.344 27.8672 327.508 27.0781 327.836 26.3984C328.172 25.7188 328.645 25.1875 329.254 24.8047C329.871 24.4219 330.598 24.2305 331.434 24.2305C332.645 24.2305 333.602 24.5352 334.305 25.1445C335.016 25.7539 335.371 26.6758 335.371 27.9102H333.543C333.543 27.1602 333.363 26.625 333.004 26.3047C332.652 25.9766 332.129 25.8125 331.434 25.8125C330.934 25.8125 330.516 25.9375 330.18 26.1875C329.844 26.4375 329.586 26.7852 329.406 27.2305C329.234 27.668 329.148 28.1758 329.148 28.7539V30.1602C329.148 30.7383 329.234 31.25 329.406 31.6953C329.578 32.1406 329.832 32.4883 330.168 32.7383C330.512 32.9883 330.934 33.1133 331.434 33.1133C332.129 33.1133 332.652 32.9531 333.004 32.6328C333.355 32.3125 333.531 31.7734 333.531 31.0156ZM324.707 29.457C324.707 30.4883 324.883 31.4492 325.234 32.3398C325.594 33.2227 326.09 33.9961 326.723 34.6602C327.355 35.3242 328.086 35.8438 328.914 36.2188C329.75 36.5859 330.645 36.7695 331.598 36.7695C332.551 36.7695 333.441 36.5859 334.27 36.2188C335.105 35.8438 335.84 35.3242 336.473 34.6602C337.105 33.9961 337.598 33.2188 337.949 32.3281C338.309 31.4375 338.488 30.4805 338.488 29.457C338.488 28.4258 338.309 27.4688 337.949 26.5859C337.598 25.6953 337.105 24.9219 336.473 24.2656C335.84 23.6016 335.105 23.0859 334.27 22.7188C333.441 22.3516 332.551 22.168 331.598 22.168C330.645 22.168 329.75 22.3516 328.914 22.7188C328.086 23.0859 327.355 23.6016 326.723 24.2656C326.09 24.9219 325.594 25.6953 325.234 26.5859C324.883 27.4688 324.707 28.4258 324.707 29.457ZM323.277 29.457C323.277 28.2148 323.492 27.0625 323.922 26C324.352 24.9375 324.949 24.0117 325.715 23.2227C326.48 22.4258 327.363 21.8086 328.363 21.3711C329.371 20.9258 330.449 20.7031 331.598 20.7031C332.746 20.7031 333.82 20.9258 334.82 21.3711C335.828 21.8086 336.711 22.4258 337.469 23.2227C338.234 24.0117 338.832 24.9375 339.262 26C339.691 27.0625 339.906 28.2148 339.906 29.457C339.906 30.6992 339.691 31.8516 339.262 32.9141C338.832 33.9766 338.234 34.9102 337.469 35.7148C336.711 36.5117 335.828 37.1328 334.82 37.5781C333.82 38.0156 332.746 38.2344 331.598 38.2344C330.449 38.2344 329.371 38.0117 328.363 37.5664C327.363 37.1211 326.48 36.5 325.715 35.7031C324.949 34.9062 324.352 33.9766 323.922 32.9141C323.492 31.8516 323.277 30.6992 323.277 29.457Z" fill="white"/>
<path fill-rule="evenodd" clip-rule="evenodd" d="M421 2C405.53 2 393 14.53 393 30C393 42.39 401.015 52.855 412.145 56.565C413.545 56.81 414.07 55.97 414.07 55.235C414.07 54.57 414.035 52.365 414.035 50.02C407 51.315 405.18 48.305 404.62 46.73C404.305 45.925 402.94 43.44 401.75 42.775C400.77 42.25 399.37 40.955 401.715 40.92C403.92 40.885 405.495 42.95 406.02 43.79C408.54 48.025 412.565 46.835 414.175 46.1C414.42 44.28 415.155 43.055 415.96 42.355C409.73 41.655 403.22 39.24 403.22 28.53C403.22 25.485 404.305 22.965 406.09 21.005C405.81 20.305 404.83 17.435 406.37 13.585C406.37 13.585 408.715 12.85 414.07 16.455C416.31 15.825 418.69 15.51 421.07 15.51C423.45 15.51 425.83 15.825 428.07 16.455C433.425 12.815 435.77 13.585 435.77 13.585C437.31 17.435 436.33 20.305 436.05 21.005C437.835 22.965 438.92 25.45 438.92 28.53C438.92 39.275 432.375 41.655 426.145 42.355C427.16 43.23 428.035 44.91 428.035 47.535C428.035 51.28 428 54.29 428 55.235C428 55.97 428.525 56.845 429.925 56.565C440.985 52.855 449 42.355 449 30C449 14.53 436.47 2 421 2Z" fill="white"/>
<path d="M504.956 58.1665C520.948 58.1665 533.913 45.3693 533.913 29.5833C533.913 13.7972 520.948 1 504.956 1C488.964 1 476 13.7972 476 29.5833C476 45.3693 488.964 58.1665 504.956 58.1665Z" fill="#FF4500"/>
<path d="M524.272 29.5833C524.272 27.2639 522.372 25.4221 520.056 25.4221C518.916 25.4221 517.879 25.8652 517.119 26.5817C514.217 24.5351 510.243 23.2051 505.82 23.0347L507.755 14.0981L514.044 15.4281C514.113 16.9973 515.426 18.2593 517.05 18.2593C518.709 18.2593 520.056 16.9292 520.056 15.2914C520.056 13.6543 518.709 12.3242 517.05 12.3242C515.875 12.3242 514.838 13.0064 514.355 13.9957L507.341 12.5289C507.133 12.4946 506.926 12.5289 506.787 12.6313C506.615 12.7337 506.511 12.9041 506.477 13.1088L504.334 23.0684C499.842 23.2051 495.799 24.5351 492.862 26.6161C492.071 25.8703 491.019 25.4548 489.925 25.4564C487.576 25.4564 485.71 27.332 485.71 29.6176C485.71 31.3228 486.746 32.7552 488.198 33.4037C488.128 33.8126 488.094 34.222 488.094 34.6658C488.094 41.0777 495.661 46.2969 504.991 46.2969C514.321 46.2969 521.888 41.112 521.888 34.6658C521.888 34.2563 521.853 33.8126 521.784 33.4037C523.235 32.7552 524.272 31.2885 524.272 29.5833ZM495.316 32.5505C495.316 30.9134 496.663 29.5833 498.322 29.5833C499.981 29.5833 501.328 30.9134 501.328 32.5505C501.328 34.1877 499.981 35.5184 498.322 35.5184C496.663 35.5521 495.316 34.1877 495.316 32.5505ZM512.144 40.4298C510.07 42.4764 506.131 42.6131 504.991 42.6131C503.816 42.6131 499.877 42.4421 497.838 40.4298C497.527 40.1227 497.527 39.6453 497.838 39.3382C498.149 39.0317 498.633 39.0317 498.944 39.3382C500.257 40.6346 503.021 41.0777 504.991 41.0777C506.961 41.0777 509.759 40.6346 511.038 39.3382C511.349 39.0317 511.833 39.0317 512.144 39.3382C512.42 39.6453 512.42 40.1227 512.144 40.4298ZM511.59 35.5521C509.932 35.5521 508.584 34.222 508.584 32.5849C508.584 30.9477 509.932 29.6176 511.59 29.6176C513.25 29.6176 514.597 30.9477 514.597 32.5849C514.597 34.1877 513.25 35.5521 511.59 35.5521Z" fill="white"/>
</svg>
