<svg width="58" height="58" viewBox="0 0 58 58" fill="none" xmlns="http://www.w3.org/2000/svg">
<path d="M28.9563 57.1665C44.9484 57.1665 57.9125 44.3693 57.9125 28.5833C57.9125 12.7972 44.9484 0 28.9563 0C12.9642 0 0 12.7972 0 28.5833C0 44.3693 12.9642 57.1665 28.9563 57.1665Z" fill="#FF4500"/>
<path d="M48.2718 28.5833C48.2718 26.2639 46.3717 24.4221 44.0562 24.4221C42.9162 24.4221 41.8792 24.8652 41.1192 25.5817C38.2169 23.5351 34.2429 22.2051 29.82 22.0347L31.7548 13.0981L38.0437 14.4281C38.1132 15.9973 39.4259 17.2593 41.0503 17.2593C42.7088 17.2593 44.0562 15.9292 44.0562 14.2914C44.0562 12.6543 42.7088 11.3242 41.0503 11.3242C39.8755 11.3242 38.8385 12.0064 38.3548 12.9957L31.3406 11.5289C31.1333 11.4946 30.9259 11.5289 30.7874 11.6313C30.6148 11.7337 30.5111 11.9041 30.4769 12.1088L28.334 22.0684C23.8422 22.2051 19.7992 23.5351 16.8622 25.6161C16.0712 24.8703 15.019 24.4548 13.9251 24.4564C11.5755 24.4564 9.70959 26.332 9.70959 28.6176C9.70959 30.3228 10.7459 31.7552 12.1977 32.4037C12.1281 32.8126 12.094 33.222 12.094 33.6658C12.094 40.0777 19.6614 45.2969 28.991 45.2969C38.3206 45.2969 45.888 40.112 45.888 33.6658C45.888 33.2563 45.8532 32.8126 45.7843 32.4037C47.2355 31.7552 48.2718 30.2885 48.2718 28.5833ZM19.3155 31.5505C19.3155 29.9134 20.663 28.5833 22.3221 28.5833C23.9807 28.5833 25.3281 29.9134 25.3281 31.5505C25.3281 33.1877 23.9807 34.5184 22.3221 34.5184C20.663 34.5521 19.3155 33.1877 19.3155 31.5505ZM36.1436 39.4298C34.0703 41.4764 30.1311 41.6131 28.991 41.6131C27.8162 41.6131 23.877 41.4421 21.8378 39.4298C21.5273 39.1227 21.5273 38.6453 21.8378 38.3382C22.1489 38.0317 22.6326 38.0317 22.9437 38.3382C24.257 39.6346 27.0214 40.0777 28.991 40.0777C30.9606 40.0777 33.7592 39.6346 35.0377 38.3382C35.3488 38.0317 35.8325 38.0317 36.1436 38.3382C36.4199 38.6453 36.4199 39.1227 36.1436 39.4298ZM35.5903 34.5521C33.9318 34.5521 32.5844 33.222 32.5844 31.5849C32.5844 29.9477 33.9318 28.6176 35.5903 28.6176C37.2495 28.6176 38.5969 29.9477 38.5969 31.5849C38.5969 33.1877 37.2495 34.5521 35.5903 34.5521Z" fill="white"/>
</svg>
